<?xml version="1.0" encoding="UTF-8" standalone="no"?>
<!DOCTYPE svg PUBLIC "-//W3C//DTD SVG 1.1//EN" "http://www.w3.org/Graphics/SVG/1.1/DTD/svg11.dtd">
<svg xmlns="http://www.w3.org/2000/svg" version="1.1" viewBox="0.00 0.00 783.00 491.00">
<g stroke-width="2.00" fill="none" stroke-linecap="butt">
<path stroke="#6ba26b" stroke-opacity="0.996" vector-effect="non-scaling-stroke" d="
  M 473.61 45.28
  Q 467.36 43.40 461.75 43.03
  Q 450.36 42.26 439.00 45.72"
/>
<path stroke="#6ba26b" stroke-opacity="0.996" vector-effect="non-scaling-stroke" d="
  M 521.39 86.18
  Q 526.42 93.07 527.98 100.28
  Q 528.54 102.88 526.13 105.24"
/>
<path stroke="#6ba26b" stroke-opacity="0.996" vector-effect="non-scaling-stroke" d="
  M 49.66 152.87
  Q 48.89 138.73 49.64 124.56"
/>
<path stroke="#6ba26b" stroke-opacity="0.996" vector-effect="non-scaling-stroke" d="
  M 390.77 94.36
  Q 389.87 94.59 388.74 93.86
  Q 388.32 93.60 387.85 93.75
  Q 385.10 94.64 384.32 96.33
  Q 382.38 100.52 379.74 104.81"
/>
<path stroke="#6ba26b" stroke-opacity="0.996" vector-effect="non-scaling-stroke" d="
  M 388.14 120.90
  Q 387.62 123.97 391.74 122.18"
/>
<path stroke="#6ba26b" stroke-opacity="0.996" vector-effect="non-scaling-stroke" d="
  M 539.10 151.56
  L 537.24 140.13
  A 2.23 2.22 86.2 0 0 535.12 138.27
  Q 526.04 138.00 515.90 139.20"
/>
<path stroke="#6ba26b" stroke-opacity="0.996" vector-effect="non-scaling-stroke" d="
  M 463.55 227.48
  Q 462.03 227.19 460.36 227.95
  Q 459.87 228.17 459.41 227.91
  Q 456.48 226.26 454.11 226.36"
/>
<path stroke="#6ba26b" stroke-opacity="0.996" vector-effect="non-scaling-stroke" d="
  M 458.14 218.76
  Q 465.30 220.03 470.60 216.85"
/>
<path stroke="#727b6f" stroke-opacity="0.996" vector-effect="non-scaling-stroke" d="
  M 302.74 423.73
  Q 303.73 417.09 302.72 410.55"
/>
<path stroke="#727b6f" stroke-opacity="0.996" vector-effect="non-scaling-stroke" d="
  M 208.29 432.51
  Q 208.40 432.52 208.56 432.48
  Q 208.74 432.45 208.74 432.26
  L 208.47 405.17"
/>
<path stroke="#727b6f" stroke-opacity="0.996" vector-effect="non-scaling-stroke" d="
  M 687.96 429.91
  Q 688.95 416.41 688.04 403.15"
/>
<path stroke="#727b6f" stroke-opacity="0.996" vector-effect="non-scaling-stroke" d="
  M 49.14 370.38
  Q 48.43 358.80 49.59 347.16"
/>
<path stroke="#6ba26b" stroke-opacity="0.996" vector-effect="non-scaling-stroke" d="
  M 482.30 199.52
  Q 481.83 200.31 482.30 200.74
  Q 482.64 201.04 483.26 200.90
  Q 484.88 200.53 483.29 199.54"
/>
<path stroke="#6ba26b" stroke-opacity="0.996" vector-effect="non-scaling-stroke" d="
  M 513.89 157.86
  Q 516.53 159.50 518.28 162.01"
/>
<path stroke="#6ba26b" stroke-opacity="0.996" vector-effect="non-scaling-stroke" d="
  M 530.26 169.40
  Q 532.53 161.17 530.43 152.02"
/>
</g>
<path fill="#b9cab2" fill-opacity="0.992" d="
  M 473.61 45.28
  Q 467.36 43.40 461.75 43.03
  Q 450.36 42.26 439.00 45.72
  C 449.87 41.19 462.58 40.04 473.61 45.28
  Z"
/>
<path fill="#1d7b25" d="
  M 473.61 45.28
  C 486.64 50.35 499.29 61.26 503.69 75.10
  A 1.16 1.16 0.0 0 0 504.30 75.78
  C 510.61 78.71 516.54 81.11 521.39 86.18
  Q 526.42 93.07 527.98 100.28
  Q 528.54 102.88 526.13 105.24
  Q 523.51 106.50 520.88 104.99
  A 1.40 1.35 -86.6 0 1 520.27 104.28
  C 517.21 96.10 514.81 88.42 505.70 85.31
  A 1.59 1.58 -72.7 0 0 503.67 86.38
  C 501.04 95.66 490.79 100.19 482.00 102.02
  C 448.22 109.02 428.52 88.45 417.94 59.31
  Q 416.93 56.52 418.96 55.21
  Q 428.47 49.11 439.00 45.72
  Q 450.36 42.26 461.75 43.03
  Q 467.36 43.40 473.61 45.28
  Z
  M 445.06 72.44
  C 441.55 67.64 447.24 63.47 450.50 65.76
  C 462.61 74.28 477.71 76.12 492.31 76.77
  Q 494.32 76.86 494.53 74.85
  Q 494.55 74.63 494.21 73.61
  Q 494.01 73.01 493.64 72.47
  C 485.25 60.05 471.63 50.93 456.46 50.90
  C 447.10 50.88 437.21 54.66 428.97 59.48
  A 1.63 1.63 0.0 0 0 428.28 61.48
  C 438.03 86.28 456.88 101.30 484.72 92.68
  Q 491.06 90.72 495.40 86.55
  A 1.11 1.11 0.0 0 0 494.57 84.64
  Q 472.52 85.84 453.12 77.34
  Q 446.54 74.46 445.06 72.44
  Z"
/>
<path fill="#1d7b25" d="
  M 49.66 152.87
  Q 48.89 138.73 49.64 124.56
  C 53.05 94.19 73.66 70.13 103.94 64.14
  C 123.04 60.37 143.60 64.70 159.01 76.38
  C 180.33 92.55 185.01 121.03 183.68 146.05
  A 1.03 1.03 0.0 0 1 182.65 147.03
  L 83.21 146.95
  Q 82.71 146.95 82.52 147.40
  C 81.74 149.26 82.54 151.54 82.68 152.99
  C 84.99 177.62 104.19 189.92 128.22 185.95
  Q 143.94 183.35 150.28 170.00
  Q 150.52 169.51 151.03 169.31
  Q 153.12 168.54 156.00 168.76
  Q 166.81 169.59 177.58 170.79
  Q 179.99 171.05 181.86 171.94
  A 1.16 1.16 0.0 0 1 182.46 173.34
  Q 173.95 199.06 148.29 208.27
  C 103.91 224.20 55.21 203.27 49.66 152.87
  Z
  M 82.40 125.08
  L 152.64 124.59
  A 0.11 0.11 0.0 0 0 152.75 124.48
  L 152.75 124.43
  A 34.94 33.89 89.6 0 0 118.62 89.73
  L 115.94 89.75
  A 34.94 33.89 89.6 0 0 82.29 124.93
  L 82.29 124.98
  A 0.11 0.11 0.0 0 0 82.40 125.08
  Z"
/>
<path fill="#1d7b25" d="
  M 228.40 195.10
  C 211.23 178.82 205.98 154.70 207.12 132.07
  C 208.72 100.41 227.08 72.42 259.16 64.85
  C 295.11 56.36 334.00 73.88 338.87 113.79
  A 1.39 1.39 0.0 0 1 337.48 115.35
  L 308.52 115.23
  A 2.70 2.69 -8.8 0 1 305.97 113.37
  C 301.07 98.39 293.20 90.59 276.68 90.73
  C 242.18 91.01 238.20 129.81 243.03 155.00
  C 247.52 178.37 267.66 191.66 290.81 182.56
  C 297.82 179.80 304.56 170.83 305.48 163.38
  A 1.26 1.24 -13.2 0 1 306.05 162.48
  Q 308.53 160.92 312.20 160.86
  Q 325.43 160.64 338.16 160.79
  A 0.92 0.92 0.0 0 1 339.06 161.83
  Q 334.93 192.57 309.60 205.72
  C 283.86 219.08 249.64 215.25 228.40 195.10
  Z"
/>
<path fill="#b9cab2" fill-opacity="0.992" d="
  M 521.39 86.18
  C 524.12 88.89 533.84 102.27 526.13 105.24
  Q 528.54 102.88 527.98 100.28
  Q 526.42 93.07 521.39 86.18
  Z"
/>
<path fill="#b9cab2" fill-opacity="0.992" d="
  M 390.77 94.36
  Q 389.87 94.59 388.74 93.86
  Q 388.32 93.60 387.85 93.75
  Q 385.10 94.64 384.32 96.33
  Q 382.38 100.52 379.74 104.81
  C 380.82 101.10 382.56 98.13 383.16 94.37
  Q 383.74 90.69 384.89 87.27
  A 0.51 0.50 47.7 0 1 385.86 87.32
  Q 386.89 91.68 390.77 94.36
  Z"
/>
<path fill="#1d7b25" d="
  M 390.77 94.36
  Q 394.15 96.59 391.98 100.19
  C 388.56 105.83 385.28 114.92 388.14 120.90
  Q 387.62 123.97 391.74 122.18
  C 403.73 120.46 413.87 126.51 421.94 135.09
  Q 444.97 159.57 431.41 191.25
  Q 428.06 199.07 424.13 206.83
  A 2.46 2.45 -68.8 0 1 421.28 208.09
  C 383.68 197.60 364.51 167.55 380.70 130.76
  C 381.11 129.83 381.50 128.00 381.10 127.06
  Q 376.22 115.67 379.74 104.81
  Q 382.38 100.52 384.32 96.33
  Q 385.10 94.64 387.85 93.75
  Q 388.32 93.60 388.74 93.86
  Q 389.87 94.59 390.77 94.36
  Z
  M 394.97 131.85
  C 388.40 130.28 385.83 139.43 385.23 144.24
  C 383.05 161.88 384.17 177.09 399.69 188.32
  Q 408.73 194.87 417.62 198.04
  Q 418.21 198.25 418.63 197.80
  Q 420.14 196.17 421.42 193.18
  C 427.51 178.96 430.65 164.36 422.94 150.57
  C 418.44 142.52 407.70 130.47 397.46 130.51
  Q 396.90 130.51 396.51 130.90
  L 395.80 131.61
  Q 395.45 131.96 394.97 131.85
  Z"
/>
<path fill="#b9cab2" fill-opacity="0.992" d="
  M 388.14 120.90
  Q 389.59 121.94 391.74 122.18
  Q 387.62 123.97 388.14 120.90
  Z"
/>
<path fill="#b9cab2" fill-opacity="0.992" d="
  M 49.64 124.56
  Q 48.89 138.73 49.66 152.87
  Q 46.33 138.67 49.64 124.56
  Z"
/>
<path fill="#1d7b25" d="
  M 401.30 144.68
  Q 398.35 140.34 397.15 135.20
  Q 397.05 134.78 396.71 134.52
  Q 396.12 134.07 396.26 133.46
  Q 396.39 132.85 396.75 133.36
  Q 399.40 137.11 402.12 140.78
  C 409.58 150.84 414.62 161.45 417.17 173.78
  C 418.03 177.93 416.21 181.05 411.74 180.76
  Q 411.25 180.73 410.88 180.41
  Q 409.18 178.95 408.95 177.50
  Q 406.08 159.42 394.38 144.08
  Q 393.01 142.28 393.34 139.70
  Q 393.44 138.95 393.91 139.53
  L 398.84 145.54
  A 0.76 0.74 -24.6 0 0 399.57 145.80
  L 400.96 145.52
  Q 401.76 145.36 401.30 144.68
  Z"
/>
<path fill="#b9cab2" fill-opacity="0.992" d="
  M 539.10 151.56
  L 537.24 140.13
  A 2.23 2.22 86.2 0 0 535.12 138.27
  Q 526.04 138.00 515.90 139.20
  C 518.39 137.90 521.26 138.31 523.67 137.80
  Q 530.41 136.35 537.23 138.10
  Q 537.78 138.24 537.75 138.81
  Q 537.59 141.28 538.94 143.38
  Q 539.22 143.81 539.21 144.33
  L 539.10 151.56
  Z"
/>
<path fill="#1d7b25" d="
  M 539.10 151.56
  C 541.02 169.61 538.43 185.13 524.52 198.01
  Q 509.16 212.24 488.67 212.92
  A 1.23 1.23 0.0 0 0 487.78 213.35
  C 486.17 215.25 484.85 217.30 483.19 218.80
  Q 474.79 226.39 463.55 227.48
  Q 462.03 227.19 460.36 227.95
  Q 459.87 228.17 459.41 227.91
  Q 456.48 226.26 454.11 226.36
  Q 454.27 225.72 454.04 224.69
  Q 452.89 219.56 458.14 218.76
  Q 465.30 220.03 470.60 216.85
  Q 476.50 215.27 479.36 210.52
  A 0.76 0.75 40.9 0 0 479.29 209.64
  C 475.17 204.80 471.76 199.61 471.33 193.06
  C 469.90 171.64 481.40 151.60 501.56 143.08
  Q 509.50 139.72 515.90 139.20
  Q 526.04 138.00 535.12 138.27
  A 2.23 2.22 86.2 0 1 537.24 140.13
  L 539.10 151.56
  Z
  M 482.30 199.52
  Q 481.83 200.31 482.30 200.74
  Q 482.64 201.04 483.26 200.90
  Q 484.88 200.53 483.29 199.54
  Q 484.53 199.55 484.92 198.19
  Q 491.44 175.56 508.15 160.62
  Q 510.61 158.43 513.89 157.86
  Q 516.53 159.50 518.28 162.01
  Q 518.42 164.44 516.45 165.98
  C 503.80 175.88 496.35 187.97 491.66 202.82
  A 1.07 1.07 0.0 0 0 492.83 204.21
  C 509.16 201.89 525.52 190.64 529.15 173.76
  Q 529.64 171.48 530.26 169.40
  Q 532.53 161.17 530.43 152.02
  L 529.51 147.77
  Q 529.40 147.25 528.97 146.95
  C 527.19 145.72 525.48 146.33 523.52 146.53
  Q 514.99 147.42 511.73 148.25
  C 487.21 154.49 478.93 173.70 479.82 197.54
  Q 479.84 198.03 480.21 198.37
  Q 481.06 199.18 482.30 199.52
  Z"
/>
<path fill="#b9cab2" fill-opacity="0.992" d="
  M 530.43 152.02
  Q 532.53 161.17 530.26 169.40
  L 530.43 152.02
  Z"
/>
<path fill="#b9cab2" fill-opacity="0.992" d="
  M 513.89 157.86
  Q 517.79 157.71 518.28 162.01
  Q 516.53 159.50 513.89 157.86
  Z"
/>
<path fill="#b9cab2" fill-opacity="0.992" d="
  M 482.30 199.52
  L 483.29 199.54
  Q 484.88 200.53 483.26 200.90
  Q 482.64 201.04 482.30 200.74
  Q 481.83 200.31 482.30 199.52
  Z"
/>
<path fill="#b9cab2" fill-opacity="0.992" d="
  M 470.60 216.85
  Q 465.30 220.03 458.14 218.76
  L 470.60 216.85
  Z"
/>
<path fill="#b9cab2" fill-opacity="0.992" d="
  M 463.55 227.48
  Q 457.87 230.10 452.15 230.07
  A 0.50 0.50 0.0 0 1 451.94 229.11
  Q 453.40 228.46 454.11 226.36
  Q 456.48 226.26 459.41 227.91
  Q 459.87 228.17 460.36 227.95
  Q 462.03 227.19 463.55 227.48
  Z"
/>
<path fill="#2c2c2c" d="
  M 302.74 423.73
  Q 303.73 417.09 302.72 410.55
  C 303.48 389.51 303.56 368.74 303.54 347.75
  Q 303.53 337.77 301.41 330.81
  C 296.56 314.78 276.78 311.29 262.76 315.79
  C 246.10 321.13 242.62 335.51 242.54 351.97
  Q 242.34 391.61 242.68 431.16
  Q 242.70 433.18 240.69 433.04
  Q 224.97 431.95 208.93 432.71
  Q 208.22 432.74 208.29 432.51
  Q 208.40 432.52 208.56 432.48
  Q 208.74 432.45 208.74 432.26
  L 208.47 405.17
  C 208.28 402.73 208.74 399.95 208.74 397.86
  Q 208.76 328.68 208.60 259.50
  Q 208.58 251.18 208.17 245.57
  Q 207.91 242.10 208.95 239.11
  A 0.75 0.74 9.2 0 1 209.66 238.61
  L 241.40 238.49
  A 1.04 1.04 0.0 0 1 242.45 239.52
  Q 242.67 262.98 242.30 286.75
  Q 242.11 298.42 240.59 309.83
  Q 240.40 311.26 241.55 312.12
  Q 242.85 313.10 244.22 312.00
  Q 244.89 311.46 245.50 310.20
  C 254.98 290.59 272.20 284.11 293.54 285.71
  C 317.63 287.51 332.61 304.33 336.41 327.47
  Q 337.27 332.69 337.26 342.08
  Q 337.20 386.99 337.31 431.92
  A 0.95 0.95 0.0 0 1 336.34 432.87
  L 304.36 432.36
  A 1.17 1.16 88.7 0 1 303.22 431.27
  L 302.74 423.73
  Z"
/>
<path fill="#2c2c2c" d="
  M 372.35 325.89
  A 1.78 1.78 0.0 0 1 370.89 323.57
  C 379.59 296.93 404.69 285.73 431.17 285.30
  C 456.92 284.89 486.40 296.33 490.10 325.67
  C 491.06 333.29 490.24 343.35 490.31 349.77
  Q 490.76 390.91 490.32 432.06
  A 0.66 0.66 0.0 0 1 489.65 432.71
  L 460.02 432.34
  A 1.37 1.37 0.0 0 1 458.68 431.08
  Q 457.99 422.51 459.17 414.05
  A 1.79 1.79 0.0 0 0 457.84 412.06
  C 456.16 411.63 455.20 412.65 454.40 414.09
  C 435.76 447.56 371.73 441.07 366.79 400.56
  C 366.31 396.65 365.66 392.52 365.83 388.77
  C 367.01 363.81 384.97 354.29 407.28 350.16
  Q 425.97 346.71 435.19 346.22
  Q 442.96 345.81 450.43 343.62
  C 455.48 342.14 457.17 338.43 457.24 333.25
  Q 457.45 317.91 444.26 313.18
  C 437.17 310.64 425.97 310.79 418.67 313.08
  C 410.93 315.51 406.26 321.16 402.20 327.75
  A 3.39 3.39 0.0 0 1 398.88 329.33
  L 372.35 325.89
  Z
  M 398.45 396.75
  C 401.88 409.95 417.90 411.38 429.31 410.23
  C 443.12 408.83 455.36 399.10 456.84 384.82
  Q 457.41 379.28 457.91 367.44
  C 458.03 364.77 457.07 363.52 454.26 364.31
  Q 439.47 368.51 420.75 370.46
  Q 414.68 371.10 408.09 374.69
  C 399.51 379.37 395.97 387.20 398.45 396.75
  Z"
/>
<path fill="#2c2c2c" d="
  M 687.96 429.91
  Q 688.95 416.41 688.04 403.15
  Q 688.74 376.96 688.53 350.50
  Q 688.45 339.39 686.22 331.00
  C 681.52 313.35 657.15 310.20 643.49 317.80
  Q 630.78 324.86 629.25 340.24
  C 628.81 344.66 629.22 350.61 629.22 353.67
  Q 629.28 392.77 629.24 431.93
  Q 629.24 432.69 628.48 432.68
  L 596.13 432.45
  A 0.63 0.63 0.0 0 1 595.51 431.82
  L 595.49 288.25
  Q 595.48 287.71 596.02 287.66
  Q 608.88 286.51 621.75 287.13
  Q 623.53 287.22 624.99 287.05
  A 2.20 2.20 0.0 0 1 627.45 289.22
  Q 627.54 300.05 625.69 310.73
  A 1.69 1.68 -7.5 0 0 628.06 312.54
  C 629.46 311.89 630.84 310.67 631.58 309.17
  Q 640.92 290.24 661.50 286.25
  C 689.68 280.79 715.78 295.05 721.08 324.40
  C 721.60 327.26 722.32 329.99 722.31 332.90
  Q 722.12 382.54 722.38 432.15
  A 1.06 1.05 1.8 0 1 721.25 433.21
  Q 705.16 432.10 689.03 432.59
  A 1.08 1.07 -24.0 0 1 688.27 432.30
  Q 687.29 431.36 687.96 429.91
  Z"
/>
<path fill="#2c2c2c" d="
  M 49.14 370.38
  Q 48.43 358.80 49.59 347.16
  C 52.91 317.07 72.86 292.50 103.01 286.78
  C 138.35 280.08 175.58 295.68 180.58 335.60
  Q 180.83 337.61 178.80 337.71
  C 170.27 338.15 161.81 337.28 153.26 337.54
  Q 151.19 337.60 149.29 336.92
  Q 148.78 336.74 148.59 336.23
  Q 145.19 326.92 143.25 324.26
  C 133.31 310.60 112.65 309.13 99.63 318.97
  Q 86.73 328.72 84.30 346.78
  C 81.63 366.68 83.47 395.43 105.11 404.85
  C 118.50 410.68 134.70 407.68 143.46 395.45
  C 146.50 391.21 146.21 382.11 154.32 382.63
  C 162.57 383.15 171.06 382.70 179.24 382.70
  A 1.31 1.31 0.0 0 1 180.54 384.15
  C 175.96 430.60 124.03 446.67 86.70 428.60
  C 62.78 417.02 52.58 396.67 49.14 370.38
  Z"
/>
<path fill="#2c2c2c" d="
  M 559.06 431.58
  A 0.93 0.93 0.0 0 1 558.13 432.51
  L 526.19 432.51
  A 0.93 0.93 0.0 0 1 525.26 431.58
  L 525.26 288.34
  A 0.93 0.93 0.0 0 1 526.19 287.41
  L 558.13 287.41
  A 0.93 0.93 0.0 0 1 559.06 288.34
  L 559.06 431.58
  Z"
/>
<path fill="#b9cab2" fill-opacity="0.992" d="
  M 49.59 347.16
  Q 48.43 358.80 49.14 370.38
  Q 47.21 363.73 48.06 357.26
  C 48.46 354.22 48.60 350.46 49.59 347.16
  Z"
/>
<path fill="#b9cab2" fill-opacity="0.992" d="
  M 688.04 403.15
  Q 688.95 416.41 687.96 429.91
  Q 686.57 416.67 688.04 403.15
  Z"
/>
<path fill="#b9cab2" fill-opacity="0.992" d="
  M 208.47 405.17
  L 208.74 432.26
  Q 208.74 432.45 208.56 432.48
  Q 208.40 432.52 208.29 432.51
  C 205.97 428.39 207.80 410.48 208.47 405.17
  Z"
/>
<path fill="#b9cab2" fill-opacity="0.992" d="
  M 302.72 410.55
  Q 303.73 417.09 302.74 423.73
  Q 301.61 417.15 302.72 410.55
  Z"
/>
</svg>
